<svg width="599" height="189" viewBox="0 0 599 189" fill="none" xmlns="http://www.w3.org/2000/svg">
<path d="M152.32 0.445068C172.648 0.445068 189.059 16.8562 189.059 37.184V53.0125C189.059 73.3404 172.648 89.7515 152.32 89.7515H1.86865V37.184C1.86865 16.8562 18.2798 0.445068 38.6076 0.445068H152.32Z" fill="#023DFF"/>
<path d="M152.32 187.636C172.648 187.636 189.059 171.225 189.059 150.897V135.068C189.059 114.74 172.648 98.3293 152.32 98.3293H1.86865V150.897C1.86865 171.225 18.2798 187.636 38.6076 187.636H152.32Z" fill="#00BB00"/>
<path d="M247.498 76.2684H267.238C271.928 76.2684 275.571 75.096 278.106 72.7513C280.673 70.4066 281.94 67.3014 281.94 63.4358C281.94 59.5702 280.641 56.465 278.106 54.0569C275.54 51.6488 271.928 50.4765 267.238 50.4765H247.498V76.2684ZM247.498 38.0241H263.087C267.016 38.0241 270.153 36.8834 272.53 34.6337C274.874 32.3841 276.047 29.469 276.047 25.9519C276.047 22.4348 274.874 19.7416 272.53 17.3969C270.185 15.0521 267.016 13.8798 263.087 13.8798H247.498V38.0241ZM232.923 89.703V0.445137H264.101C271.991 0.445137 278.36 2.78986 283.208 7.47931C288.055 12.1688 290.495 17.9989 290.495 24.9697C290.495 32.3524 287.77 38.1191 282.32 42.3333C291.794 46.4524 296.515 53.6767 296.515 64.0695C296.515 71.8008 293.759 77.9794 288.277 82.6689C282.796 87.3583 275.73 89.703 267.08 89.703H232.891H232.923Z" fill="black"/>
<path d="M333.112 37.6438C329.405 37.6438 325.951 38.7528 322.688 40.9708C319.424 43.1888 317.333 46.5474 316.414 51.1101H349.842C349.177 46.7375 347.307 43.4106 344.266 41.1292C341.192 38.8162 337.485 37.6755 333.144 37.6755L333.112 37.6438ZM334.253 90.6853C325.286 90.6853 317.681 87.5801 311.439 81.3697C305.197 75.1594 302.061 67.4598 302.061 58.2394C302.061 49.0189 305.134 41.3193 311.249 35.109C317.365 28.8986 324.969 25.7935 333.999 25.7935C343.03 25.7935 350.92 29.0571 356.623 35.5843C362.326 42.1115 364.924 50.6348 364.418 61.091H315.875C316.382 66.129 318.41 70.1531 321.991 73.2266C325.539 76.3001 329.627 77.821 334.253 77.821C341.224 77.821 346.737 75.2544 350.856 70.1531L360.805 78.7082C354.532 86.6612 345.691 90.6536 334.285 90.6536L334.253 90.6853Z" fill="black"/>
<path d="M373.226 89.7348V26.8392H387.072V33.4931C391.096 28.5502 396.514 26.0787 403.295 26.0787C405.481 26.0787 407.256 26.3005 408.587 26.7124V41.0659C406.654 40.2104 404.214 39.7985 401.299 39.7985C394.772 39.7985 390.019 42.3967 387.104 47.5931V89.7031H373.257L373.226 89.7348Z" fill="black"/>
<path d="M440.874 37.6438C437.167 37.6438 433.713 38.7528 430.449 40.9708C427.186 43.1888 425.095 46.5474 424.176 51.1101H457.604C456.938 46.7375 455.069 43.4106 452.027 41.1292C448.954 38.8162 445.247 37.6755 440.906 37.6755L440.874 37.6438ZM442.015 90.6853C433.048 90.6853 425.443 87.5801 419.201 81.3697C412.959 75.1594 409.822 67.4598 409.822 58.2394C409.822 49.0189 412.896 41.3193 419.011 35.109C425.126 28.8986 432.731 25.7935 441.761 25.7935C450.792 25.7935 458.681 29.0571 464.385 35.5843C470.088 42.1115 472.686 50.6348 472.179 61.091H423.637C424.144 66.129 426.172 70.1531 429.721 73.2266C433.269 76.3001 437.357 77.821 441.983 77.821C448.954 77.821 454.467 75.2544 458.586 70.1531L468.535 78.7082C462.262 86.6612 453.421 90.6536 442.015 90.6536V90.6853Z" fill="black"/>
<path d="M480.986 89.7347V0.445137H494.801V55.5144L519.959 26.8391H536.943L510.644 56.5284L540.08 89.7347H522.589L494.801 58.2711V89.7347H480.986Z" fill="black"/>
<path d="M566.729 37.6438C563.022 37.6438 559.569 38.7528 556.305 40.9708C553.041 43.1888 550.95 46.5474 550.031 51.1101H583.459C582.794 46.7375 580.925 43.4106 577.883 41.1292C574.809 38.8162 571.102 37.6755 566.761 37.6755L566.729 37.6438ZM567.87 90.6853C558.903 90.6853 551.299 87.5801 545.057 81.3697C538.815 75.1594 535.678 67.4598 535.678 58.2394C535.678 49.0189 538.751 41.3193 544.866 35.109C550.982 28.8986 558.586 25.7935 567.617 25.7935C576.647 25.7935 584.537 29.0571 590.24 35.5843C595.943 42.1115 598.542 50.6348 598.035 61.091H549.493C550 66.129 552.027 70.1531 555.608 73.2266C559.157 76.3001 563.244 77.821 567.87 77.821C574.841 77.821 580.354 75.2544 584.473 70.1531L594.423 78.7082C588.149 86.6612 579.309 90.6536 567.902 90.6536L567.87 90.6853Z" fill="black"/>
<path d="M247.501 174.166H267.244C271.935 174.166 275.579 172.994 278.114 170.649C280.681 168.304 281.949 165.198 281.949 161.331C281.949 157.465 280.65 154.359 278.114 151.951C275.547 149.542 271.935 148.37 267.244 148.37H247.501V174.166ZM247.501 135.915H263.093C267.023 135.915 270.16 134.774 272.537 132.524C274.882 130.274 276.055 127.359 276.055 123.841C276.055 120.323 274.882 117.629 272.537 115.284C270.192 112.939 267.023 111.766 263.093 111.766H247.501V135.915ZM232.923 187.603V98.3294H264.107C271.998 98.3294 278.368 100.675 283.217 105.365C288.066 110.055 290.506 115.886 290.506 122.858C290.506 130.242 287.78 136.01 282.329 140.225C291.805 144.345 296.527 151.571 296.527 161.965C296.527 169.698 293.77 175.878 288.287 180.568C282.805 185.258 275.738 187.603 267.086 187.603H232.891H232.923Z" fill="black"/>
<path d="M334.905 175.783C341.94 175.783 347.391 173.026 351.258 167.48V144.947C347.486 139.338 342.035 136.517 334.905 136.517C329.454 136.517 324.954 138.387 321.436 142.095C317.918 145.834 316.144 150.493 316.144 156.102C316.144 161.712 317.918 166.402 321.436 170.11C324.954 173.85 329.422 175.688 334.905 175.688V175.783ZM351.258 187.635V182.343C346.567 186.526 340.641 188.618 333.542 188.618C324.478 188.618 316.968 185.48 311.01 179.174C305.052 172.899 302.073 165.23 302.073 156.166C302.073 147.102 305.052 139.433 311.01 133.158C316.968 126.883 324.478 123.714 333.542 123.714C340.578 123.714 346.504 125.869 351.258 130.116V124.696H365.107V187.572H351.258V187.635Z" fill="black"/>
<path d="M378.29 187.635V124.76H392.14V130.686C396.259 126.059 402.154 123.777 409.855 123.777C417.556 123.777 423.736 126.217 428.331 131.13C432.958 136.042 435.24 142.507 435.24 150.556V187.667H421.391V152.204C421.391 147.514 420.155 143.743 417.683 140.891C415.211 138.038 411.661 136.612 407.066 136.612C399.841 136.612 394.865 140.035 392.108 146.912V187.667H378.259L378.29 187.635Z" fill="black"/>
<path d="M447.694 187.635V98.3294H461.543V153.409L486.675 124.728H503.661L477.357 154.423L506.798 187.635H489.305L461.543 156.166V187.635H447.694Z" fill="black"/>
<path d="M151.276 0.454932C171.555 0.454932 187.995 16.8944 187.995 37.1736L187.995 52.9506C187.995 73.2298 171.555 89.6692 151.276 89.6692L0.904476 89.6692L0.904478 37.1735C0.904479 16.8944 17.344 0.454926 37.6231 0.454927L151.276 0.454932Z" fill="#023DFF"/>
<path d="M151.276 187.545C171.555 187.545 187.995 171.106 187.995 150.826L187.995 135.049C187.995 114.77 171.555 98.3308 151.276 98.3308L0.904476 98.3308L0.904478 150.826C0.904479 171.106 17.344 187.545 37.6231 187.545L151.276 187.545Z" fill="#00BB00"/>
</svg>
