<svg width="334" height="334" viewBox="0 0 334 334" fill="none" xmlns="http://www.w3.org/2000/svg">
<path d="M269.366 0.946424C304.661 0.946425 333.273 29.5589 333.273 64.8542L333.273 95.5072C333.273 130.803 304.661 159.415 269.366 159.415L0.951073 159.415L0.951078 64.8541C0.951079 29.5589 29.5636 0.946413 64.8588 0.946415L269.366 0.946424Z" fill="#023DFF"/>
<path d="M269.366 333.269C304.661 333.269 333.273 304.656 333.273 269.361L333.273 238.708C333.273 203.413 304.661 174.8 269.366 174.8L0.951073 174.8L0.951078 269.361C0.951079 304.656 29.5636 333.269 64.8588 333.269L269.366 333.269Z" fill="#00BB00"/>
<path d="M35.6813 230.29H42.2848C43.8535 230.29 45.0725 229.898 45.9204 229.114C46.779 228.33 47.203 227.291 47.203 225.998C47.203 224.705 46.7684 223.666 45.9204 222.86C45.0619 222.055 43.8535 221.662 42.2848 221.662H35.6813V230.29ZM35.6813 217.497H40.8963C42.2106 217.497 43.26 217.115 44.0549 216.363C44.8393 215.61 45.2315 214.635 45.2315 213.458C45.2315 212.282 44.8393 211.381 44.0549 210.597C43.2706 209.812 42.2106 209.42 40.8963 209.42H35.6813V217.497ZM30.8055 234.785V204.926H41.2355C43.8747 204.926 46.0052 205.71 47.627 207.279C49.2487 208.848 50.0649 210.798 50.0649 213.13C50.0649 215.6 49.1533 217.529 47.3302 218.938C50.4994 220.316 52.0788 222.733 52.0788 226.21C52.0788 228.796 51.1566 230.863 49.3229 232.432C47.4892 234 45.1255 234.785 42.2318 234.785H30.7949H30.8055Z" fill="white"/>
<path d="M64.3211 217.37C63.081 217.37 61.9256 217.741 60.8339 218.483C59.7421 219.225 59.0426 220.348 58.7352 221.874H69.9177C69.6951 220.412 69.0697 219.299 68.0522 218.536C67.024 217.762 65.7839 217.38 64.3317 217.38L64.3211 217.37ZM64.7027 235.113C61.7031 235.113 59.1592 234.075 57.0711 231.997C54.983 229.92 53.9336 227.344 53.9336 224.259C53.9336 221.175 54.9618 218.599 57.0075 216.522C59.0532 214.444 61.5971 213.405 64.6179 213.405C67.6388 213.405 70.2781 214.497 72.186 216.681C74.0939 218.864 74.9631 221.715 74.7935 225.213H58.555C58.7246 226.899 59.403 228.245 60.6007 229.273C61.7878 230.301 63.1552 230.81 64.7027 230.81C67.0346 230.81 68.8789 229.951 70.2569 228.245L73.5851 231.107C71.4864 233.767 68.5292 235.103 64.7133 235.103L64.7027 235.113Z" fill="white"/>
<path d="M77.7393 234.795V213.755H82.3712V215.981C83.7174 214.328 85.5299 213.501 87.7982 213.501C88.5296 213.501 89.1232 213.575 89.5683 213.713V218.514C88.9218 218.228 88.1056 218.09 87.1304 218.09C84.9469 218.09 83.357 218.96 82.3818 220.698V234.785H77.7499L77.7393 234.795Z" fill="white"/>
<path d="M100.37 217.37C99.1298 217.37 97.9745 217.741 96.8827 218.483C95.791 219.225 95.0914 220.348 94.784 221.874H105.966C105.744 220.412 105.119 219.299 104.101 218.536C103.073 217.762 101.833 217.38 100.381 217.38L100.37 217.37ZM100.752 235.113C97.7519 235.113 95.208 234.075 93.1199 231.997C91.0318 229.92 89.9824 227.344 89.9824 224.259C89.9824 221.175 91.0106 218.599 93.0563 216.522C95.102 214.444 97.6459 213.405 100.667 213.405C103.688 213.405 106.327 214.497 108.235 216.681C110.143 218.864 111.012 221.715 110.842 225.213H94.6038C94.7734 226.899 95.4518 228.245 96.6389 229.273C97.8261 230.301 99.1934 230.81 100.741 230.81C103.073 230.81 104.917 229.951 106.295 228.245L109.623 231.107C107.525 233.767 104.567 235.103 100.752 235.103V235.113Z" fill="white"/>
<path d="M113.79 234.795V204.926H118.411V223.348L126.827 213.755H132.509L123.711 223.687L133.558 234.795H127.707L118.411 224.27V234.795H113.79Z" fill="white"/>
<path d="M142.472 217.37C141.231 217.37 140.076 217.741 138.984 218.483C137.893 219.225 137.193 220.348 136.886 221.874H148.068C147.845 220.412 147.22 219.299 146.203 218.536C145.174 217.762 143.934 217.38 142.482 217.38L142.472 217.37ZM142.853 235.113C139.853 235.113 137.31 234.075 135.221 231.997C133.133 229.92 132.084 227.344 132.084 224.259C132.084 221.175 133.112 218.599 135.158 216.522C137.204 214.444 139.747 213.405 142.768 213.405C145.789 213.405 148.428 214.497 150.336 216.681C152.244 218.864 153.113 221.715 152.944 225.213H136.705C136.875 226.899 137.553 228.245 138.751 229.273C139.938 230.301 141.306 230.81 142.853 230.81C145.185 230.81 147.029 229.951 148.407 228.245L151.736 231.107C149.637 233.767 146.68 235.103 142.864 235.103L142.853 235.113Z" fill="white"/>
<path d="M35.6822 263.04H42.2869C43.8559 263.04 45.0751 262.647 45.9232 261.863C46.7819 261.078 47.206 260.039 47.206 258.746C47.206 257.453 46.7713 256.414 45.9232 255.608C45.0645 254.802 43.8559 254.41 42.2869 254.41H35.6822V263.04ZM35.6822 250.244H40.8981C42.2127 250.244 43.2622 249.862 44.0573 249.109C44.8419 248.357 45.2341 247.381 45.2341 246.205C45.2341 245.028 44.8419 244.127 44.0573 243.342C43.2728 242.558 42.2127 242.165 40.8981 242.165H35.6822V250.244ZM30.8055 267.535V237.67H41.2374C43.8771 237.67 46.008 238.455 47.63 240.024C49.2521 241.593 50.0684 243.544 50.0684 245.876C50.0684 248.346 49.1567 250.276 47.3332 251.686C50.503 253.064 52.0826 255.481 52.0826 258.958C52.0826 261.545 51.1603 263.612 49.3263 265.181C47.4922 266.75 45.1281 267.535 42.2339 267.535H30.7949H30.8055Z" fill="white"/>
<path d="M35.6822 230.306H42.2869C43.8559 230.306 45.0751 229.914 45.9232 229.129C46.7819 228.345 47.206 227.306 47.206 226.013C47.206 224.719 46.7713 223.68 45.9232 222.875C45.0645 222.069 43.8559 221.677 42.2869 221.677H35.6822V230.306ZM35.6822 217.51H40.8981C42.2127 217.51 43.2622 217.129 44.0573 216.376C44.8419 215.623 45.2341 214.648 45.2341 213.471C45.2341 212.294 44.8419 211.393 44.0573 210.609C43.2728 209.824 42.2127 209.432 40.8981 209.432H35.6822V217.51ZM30.8055 234.801V204.937H41.2374C43.8771 204.937 46.008 205.721 47.63 207.29C49.2521 208.859 50.0684 210.81 50.0684 213.142C50.0684 215.613 49.1567 217.542 47.3332 218.952C50.503 220.33 52.0826 222.747 52.0826 226.225C52.0826 228.811 51.1603 230.879 49.3263 232.448C47.4922 234.017 45.1281 234.801 42.2339 234.801H30.7949H30.8055Z" fill="white"/>
<path d="M64.9206 263.58C67.2741 263.58 69.0976 262.658 70.391 260.803V253.265C69.1294 251.389 67.3059 250.445 64.9206 250.445C63.0972 250.445 61.5918 251.071 60.415 252.311C59.2382 253.562 58.6446 255.12 58.6446 256.997C58.6446 258.873 59.2382 260.442 60.415 261.683C61.5918 262.934 63.0866 263.549 64.9206 263.549V263.58ZM70.391 267.545V265.775C68.822 267.174 66.8395 267.874 64.4648 267.874C61.4327 267.874 58.9202 266.824 56.9271 264.715C54.934 262.616 53.9375 260.05 53.9375 257.018C53.9375 253.986 54.934 251.42 56.9271 249.321C58.9202 247.222 61.4327 246.162 64.4648 246.162C66.8183 246.162 68.8008 246.883 70.391 248.304V246.491H75.0238V267.524H70.391V267.545Z" fill="white"/>
<path d="M79.4354 267.545V246.512H84.0682V248.494C85.4464 246.947 87.4183 246.183 89.9945 246.183C92.5706 246.183 94.6379 247 96.1751 248.643C97.7229 250.286 98.4862 252.449 98.4862 255.142V267.556H93.8534V255.693C93.8534 254.124 93.4399 252.862 92.613 251.908C91.7861 250.954 90.5987 250.477 89.0615 250.477C86.6444 250.477 84.98 251.622 84.0576 253.922V267.556H79.4248L79.4354 267.545Z" fill="white"/>
<path d="M102.652 267.545V237.67H107.285V256.096L115.692 246.501H121.375L112.575 256.435L122.424 267.545H116.572L107.285 257.018V267.545H102.652Z" fill="white"/>
</svg>
