<svg width="150" height="140" viewBox="0 0 150 140" fill="none" xmlns="http://www.w3.org/2000/svg">
<path d="M0 83.1606H10.7672L20.0804 102.966L29.6686 83.1606H39.768V112.397H31.8692V93.2598L22.9883 112.397H16.6616L7.78068 93.2598V112.397H0V83.1606ZM63.8281 82.689C67.2343 82.689 70.0637 83.1476 72.3161 84.0643C74.5958 84.955 76.4032 86.1076 77.7395 87.5225C79.0753 88.9109 80.0186 90.4565 80.5689 92.1593C81.1185 93.8621 81.394 95.5129 81.394 97.1104V98.2896C81.394 99.8611 81.1185 101.512 80.5689 103.241C80.0186 104.944 79.0753 106.516 77.7395 107.957C76.4032 109.371 74.5958 110.55 72.3161 111.493C70.0637 112.41 67.2343 112.868 63.8281 112.868H62.0993C59.8203 112.868 57.803 112.659 56.0476 112.239C54.2922 111.794 52.7603 111.205 51.4499 110.472C50.1661 109.738 49.0792 108.899 48.1885 107.957C47.2978 106.987 46.5773 105.965 46.0271 104.892C45.5034 103.791 45.1234 102.677 44.8875 101.551C44.6517 100.424 44.5341 99.3375 44.5341 98.2896V97.1104C44.5341 96.0365 44.6517 94.9496 44.8875 93.8491C45.1234 92.7225 45.5034 91.622 46.0271 90.5481C46.5773 89.4742 47.2978 88.4652 48.1885 87.5225C49.0792 86.5532 50.1661 85.7145 51.4499 85.0076C52.7603 84.3002 54.2922 83.7369 56.0476 83.3178C57.803 82.8988 59.8203 82.689 62.0993 82.689H63.8281ZM72.9846 97.4249C72.9846 96.5342 72.8404 95.6175 72.5519 94.6741C72.2901 93.7048 71.7924 92.8271 71.059 92.0417C70.3255 91.2556 69.3036 90.6137 67.9938 90.116C66.7101 89.6184 65.0333 89.3695 62.964 89.3695C60.9202 89.3695 59.244 89.6184 57.9343 90.116C56.6505 90.6137 55.6286 91.2556 54.8691 92.0417C54.1356 92.8271 53.6243 93.7048 53.3365 94.6741C53.0741 95.6175 52.9435 96.5342 52.9435 97.4249V97.9751C52.9435 98.8658 53.0877 99.7962 53.3755 100.765C53.664 101.708 54.1746 102.586 54.9081 103.398C55.6682 104.184 56.6895 104.839 57.9732 105.363C59.283 105.887 60.9468 106.149 62.964 106.149C65.0073 106.149 66.6841 105.887 67.9938 105.363C69.3036 104.839 70.3255 104.184 71.059 103.398C71.7924 102.586 72.2901 101.708 72.5519 100.765C72.8404 99.7962 72.9846 98.8658 72.9846 97.9751V97.4249ZM100.243 112.908C97.9639 112.908 95.9986 112.751 94.3485 112.436C92.6977 112.122 91.3093 111.703 90.1828 111.178C89.0562 110.655 88.1395 110.052 87.4321 109.371C86.7512 108.69 86.2269 107.996 85.8605 107.288C85.4934 106.555 85.2446 105.834 85.114 105.127C85.0088 104.42 84.9568 103.778 84.9568 103.202V102.769H93.7586C93.7852 103.084 93.8638 103.49 93.9944 103.987C94.1516 104.459 94.4531 104.918 94.8987 105.363C95.3698 105.808 96.0513 106.188 96.942 106.503C97.8587 106.817 99.0898 106.974 100.636 106.974H100.911C102.43 106.974 103.636 106.869 104.526 106.659C105.443 106.45 106.137 106.188 106.608 105.874C107.107 105.533 107.421 105.153 107.552 104.734C107.709 104.315 107.788 103.896 107.788 103.477C107.788 103.058 107.696 102.664 107.513 102.298C107.356 101.931 107.054 101.63 106.608 101.394C106.163 101.132 105.548 100.922 104.762 100.765C104.002 100.608 103.02 100.503 101.815 100.451L97.9243 100.333C95.514 100.254 93.4968 99.9794 91.8726 99.5077C90.2744 99.0101 88.9776 98.3812 87.9823 97.6217C87.013 96.8356 86.3185 95.9449 85.8995 94.9496C85.4804 93.9537 85.2712 92.9057 85.2712 91.8058V91.4518C85.2712 90.3252 85.4544 89.2383 85.8209 88.1904C86.2139 87.1425 86.9344 86.2258 87.9823 85.4397C89.0562 84.6276 90.5368 83.9857 92.4228 83.5141C94.3088 83.0424 96.7718 82.8066 99.8103 82.8066H101.147C104.369 82.8066 106.95 83.082 108.888 83.6323C110.827 84.1559 112.307 84.8374 113.329 85.6755C114.377 86.4876 115.057 87.4043 115.372 88.4262C115.686 89.4215 115.844 90.4038 115.844 91.3732V91.8058H107.159C107.107 91.4914 107.002 91.1509 106.844 90.7839C106.687 90.3908 106.373 90.0374 105.902 89.723C105.456 89.3825 104.814 89.1071 103.976 88.8979C103.138 88.6881 102.011 88.5834 100.596 88.5834H100.203C98.8936 88.5834 97.8197 88.6491 96.981 88.7797C96.1689 88.8849 95.527 89.0551 95.0559 89.2909C94.5843 89.5001 94.2569 89.7756 94.073 90.116C93.8898 90.4305 93.7982 90.7839 93.7982 91.1769C93.7982 91.5434 93.8768 91.8974 94.034 92.2379C94.1912 92.5523 94.4791 92.8271 94.8987 93.063C95.3178 93.2988 95.894 93.4956 96.6275 93.6528C97.361 93.8101 98.3043 93.9147 99.4568 93.9667L103.504 94.1239C106.098 94.2291 108.233 94.5169 109.909 94.9886C111.586 95.4342 112.909 96.0365 113.878 96.796C114.848 97.5301 115.516 98.4072 115.883 99.4291C116.25 100.424 116.433 101.512 116.433 102.69V103.162C116.433 104.236 116.263 105.35 115.922 106.503C115.581 107.655 114.874 108.703 113.8 109.646C112.752 110.589 111.233 111.375 109.242 112.004C107.277 112.606 104.657 112.908 101.382 112.908H100.243ZM130.232 89.8406H118.914V83.1606H149.605V89.8406H138.288V112.397H130.232V89.8406Z" fill="white"/>
<path fill-rule="evenodd" clip-rule="evenodd" d="M85.2601 12.6412C78.3016 19.5939 72.469 25.2825 72.2988 25.2825C72.1286 25.2825 68.1034 21.4113 63.3534 16.6799C58.604 11.9484 54.3789 7.90095 53.9642 7.68524C52.9503 7.15725 52.0689 7.12866 38.5016 7.1796L26.75 7.22355V37.1029V66.9822L32.2558 66.9785L37.7619 66.9742L38.5517 65.7467C38.9862 65.0721 41.2176 61.9339 43.5097 58.7734C45.8011 55.6135 48.922 51.2553 50.4441 49.0889C54.1102 43.871 56.9018 40.3863 57.4174 40.3863C58.6071 40.3863 60.9666 44.7468 61.5571 45.4778C68.8406 54.492 65.2109 56.8911 75.1324 45.216C76.6347 43.4474 79.6392 39.9128 81.8087 37.3606C83.9782 34.8084 86.014 32.5612 86.3322 32.3668C86.805 32.0786 87.0613 32.1944 87.7279 32.9985C88.5289 33.9639 105.366 58.7406 108.927 64.1944L110.735 66.963L116.076 66.9723L121.418 66.9822V33.7052V0.428144L117.915 0.214104C115.989 0.0961894 110.701 0 106.163 0H97.9119L85.2601 12.6412Z" fill="white"/>
<path d="M36.2513 135.768V130.448H31.123V135.768H29.0908V123.697H31.123V128.59H36.2513V123.697H38.2923V135.768H36.2513ZM46.4993 135.768V134.503C46.2962 134.706 46.0722 134.901 45.8283 135.088C45.5894 135.273 45.3337 135.436 45.0608 135.576C44.7928 135.715 44.5142 135.826 44.2233 135.907C43.9386 135.994 43.6508 136.038 43.3598 136.038C42.8479 136.038 42.4208 135.965 42.0779 135.82C41.7344 135.674 41.4583 135.463 41.2491 135.184C41.0455 134.898 40.9 134.552 40.8128 134.146C40.7261 133.733 40.6822 133.262 40.6822 132.732V126.619H42.5576V131.834C42.5576 132.294 42.5719 132.683 42.601 133.003C42.6301 133.317 42.6913 133.573 42.7842 133.771C42.877 133.962 43.0107 134.102 43.1853 134.189C43.3598 134.276 43.5895 134.32 43.8742 134.32C44.0661 134.32 44.2697 134.282 44.4851 134.207C44.7061 134.131 44.9295 134.029 45.1567 133.901C45.3888 133.774 45.6185 133.625 45.8456 133.457C46.0722 133.282 46.2901 133.099 46.4993 132.907V126.619H48.3748V135.768H46.4993ZM58.9023 131.128C58.9023 131.785 58.8354 132.41 58.7017 133.003C58.568 133.596 58.3557 134.12 58.0648 134.573C57.7739 135.021 57.3988 135.378 56.9395 135.645C56.4802 135.907 55.925 136.038 55.2738 136.038C55.012 136.038 54.7508 136.009 54.489 135.951C54.2333 135.893 53.9857 135.814 53.7474 135.715C53.5091 135.617 53.2851 135.503 53.0759 135.376C52.8666 135.242 52.6803 135.105 52.5175 134.965L52.3783 135.768H50.7733V122.781H52.6488V127.447C53.009 127.133 53.4219 126.875 53.8873 126.671C54.3522 126.462 54.8554 126.357 55.3958 126.357C56.0123 126.357 56.5415 126.47 56.9834 126.697C57.4254 126.924 57.7887 127.247 58.0735 127.666C58.3582 128.078 58.568 128.578 58.7017 129.165C58.8354 129.753 58.9023 130.407 58.9023 131.128ZM56.9661 131.163C56.9661 130.116 56.8033 129.331 56.4777 128.808C56.1522 128.279 55.6372 128.014 54.934 128.014C54.7304 128.014 54.5236 128.043 54.3144 128.101C54.1052 128.154 53.9016 128.229 53.7041 128.328C53.5122 128.421 53.3259 128.532 53.1458 128.66C52.9657 128.782 52.7998 128.913 52.6488 129.052V133.483C52.788 133.605 52.9453 133.721 53.1198 133.832C53.2944 133.936 53.477 134.029 53.6688 134.111C53.8607 134.192 54.0557 134.256 54.2531 134.303C54.4512 134.349 54.6431 134.372 54.8288 134.372C55.1259 134.372 55.4044 134.314 55.6663 134.198C55.9281 134.082 56.1546 133.896 56.3465 133.64C56.5384 133.384 56.6894 133.053 56.8002 132.645C56.9104 132.239 56.9661 131.744 56.9661 131.163ZM63.9877 135.768L68.0433 123.697H70.6857L74.7585 135.768H72.6478L71.7237 132.986H66.9353L66.0198 135.768H63.9877ZM67.5196 131.163H71.1128L69.3252 125.729L67.5196 131.163ZM76.163 135.768V122.781H78.0384V135.768H76.163ZM91.191 135.768V130.378C91.191 129.924 91.1762 129.549 91.1471 129.253C91.1242 128.956 91.0716 128.721 90.9905 128.546C90.9088 128.372 90.7924 128.25 90.6414 128.18C90.4903 128.104 90.2867 128.067 90.0311 128.067C89.8447 128.067 89.6529 128.108 89.4554 128.189C89.258 128.264 89.0568 128.369 88.8538 128.502C88.6557 128.631 88.4582 128.782 88.2608 128.956C88.0689 129.125 87.8857 129.299 87.7111 129.48V135.768H85.8357V130.378C85.8357 129.912 85.8214 129.532 85.7923 129.235C85.7632 128.933 85.7081 128.697 85.6264 128.529C85.5454 128.354 85.429 128.235 85.278 128.171C85.1325 128.101 84.9375 128.067 84.6936 128.067C84.4956 128.067 84.2919 128.11 84.0827 128.197C83.8735 128.279 83.6674 128.389 83.4637 128.529C83.2601 128.663 83.0626 128.814 82.8708 128.982C82.6845 129.151 82.513 129.316 82.3558 129.48V135.768H80.4809V126.619H82.3558V127.892C82.5539 127.671 82.7631 127.468 82.984 127.282C83.205 127.096 83.4316 126.936 83.6643 126.802C83.9026 126.662 84.1496 126.555 84.4058 126.479C84.6615 126.398 84.9289 126.357 85.208 126.357C85.9 126.357 86.4292 126.497 86.7951 126.775C87.1615 127.049 87.4085 127.468 87.5366 128.031C87.7867 127.77 88.0305 127.537 88.2695 127.334C88.5078 127.125 88.7492 126.95 88.993 126.811C89.2431 126.665 89.5018 126.555 89.7692 126.479C90.0366 126.398 90.322 126.357 90.624 126.357C91.1124 126.357 91.5135 126.436 91.8279 126.593C92.1418 126.744 92.3918 126.965 92.5775 127.255C92.7638 127.541 92.8919 127.887 92.9613 128.293C93.0368 128.7 93.0745 129.157 93.0745 129.662V135.768H91.191ZM100.689 135.768V134.73C100.259 135.114 99.8022 135.427 99.32 135.672C98.8434 135.916 98.3228 136.038 97.7589 136.038C97.2935 136.038 96.8806 135.968 96.5204 135.829C96.1595 135.689 95.8575 135.494 95.613 135.244C95.3691 134.989 95.1828 134.689 95.0553 134.346C94.9271 133.997 94.8634 133.613 94.8634 133.195C94.8634 132.643 94.9531 132.18 95.1333 131.808C95.3196 131.436 95.5727 131.134 95.8921 130.901C96.2177 130.663 96.6015 130.486 97.0434 130.369C97.4909 130.247 97.9799 130.16 98.5085 130.107L100.602 129.907V129.48C100.602 129.177 100.555 128.927 100.463 128.73C100.375 128.526 100.244 128.363 100.07 128.241C99.9012 128.119 99.6889 128.034 99.4333 127.988C99.1832 127.935 98.8985 127.909 98.5785 127.909C98.2702 127.909 97.9997 127.939 97.7676 127.997C97.5404 128.055 97.343 128.13 97.1746 128.223C97.0056 128.317 96.8664 128.424 96.7556 128.546C96.6454 128.663 96.5581 128.779 96.4938 128.895L95.0113 127.945C95.1221 127.747 95.2731 127.555 95.465 127.369C95.6625 127.177 95.907 127.008 96.1973 126.863C96.4882 126.712 96.8311 126.59 97.2266 126.497C97.6277 126.403 98.0901 126.357 98.6131 126.357C99.2531 126.357 99.8139 126.41 100.297 126.514C100.78 126.619 101.181 126.793 101.5 127.037C101.826 127.282 102.07 127.61 102.233 128.023C102.396 128.43 102.477 128.939 102.477 129.549V135.768H100.689ZM100.602 131.32L99.294 131.442C98.8923 131.477 98.5351 131.532 98.2207 131.608C97.9131 131.683 97.6512 131.788 97.4358 131.922C97.2266 132.055 97.0669 132.224 96.9561 132.427C96.846 132.625 96.7909 132.869 96.7909 133.16C96.7909 133.642 96.9184 133.986 97.1746 134.189C97.4303 134.387 97.7905 134.485 98.256 134.485C98.4361 134.485 98.6224 134.454 98.8143 134.389C99.0117 134.326 99.2092 134.242 99.4073 134.137C99.6103 134.032 99.8115 133.91 100.009 133.771C100.213 133.625 100.41 133.474 100.602 133.317V131.32ZM109.516 135.768C109.254 135.849 108.957 135.913 108.626 135.96C108.301 136.012 107.989 136.038 107.693 136.038C107.193 136.038 106.766 135.977 106.411 135.855C106.062 135.739 105.774 135.559 105.547 135.314C105.327 135.064 105.164 134.747 105.059 134.363C104.954 133.98 104.902 133.526 104.902 133.003V128.145H103.673V126.619H104.902V124.072H106.777V126.619H108.993V128.145H106.777V132.715C106.777 133.041 106.795 133.317 106.829 133.544C106.87 133.765 106.934 133.945 107.021 134.084C107.109 134.224 107.222 134.326 107.362 134.389C107.507 134.454 107.681 134.485 107.885 134.485C108.088 134.485 108.304 134.463 108.53 134.416C108.757 134.363 108.955 134.303 109.123 134.233L109.516 135.768ZM109.7 137.355C109.903 137.437 110.118 137.497 110.345 137.538C110.577 137.585 110.801 137.608 111.016 137.608C111.191 137.608 111.353 137.576 111.504 137.512C111.662 137.454 111.81 137.355 111.95 137.216C112.095 137.082 112.232 136.904 112.359 136.683C112.493 136.462 112.624 136.192 112.752 135.873L113.022 135.218L109.7 126.619H111.679L114.016 132.89L116.397 126.619H118.325L114.391 136.431C114.188 136.93 113.982 137.355 113.772 137.704C113.563 138.059 113.327 138.347 113.066 138.568C112.804 138.794 112.51 138.957 112.185 139.056C111.859 139.161 111.484 139.213 111.06 139.213C110.769 139.213 110.464 139.19 110.144 139.143C109.825 139.097 109.534 139.032 109.272 138.951L109.7 137.355Z" fill="white"/>
</svg>
