<svg width="256" height="256" viewBox="0 0 256 256" fill="none" xmlns="http://www.w3.org/2000/svg">
<g clip-path="url(#clip0_509_2)">
<rect width="256" height="256" fill="#2E2E2E"/>
<path d="M18.5 -15V271.125" stroke="#3A3A3A"/>
<path d="M73 -15V271.125" stroke="#3A3A3A"/>
<path d="M127.5 -15V271.125" stroke="#3A3A3A"/>
<path d="M182 -15V271.125" stroke="#3A3A3A"/>
<path d="M236.5 -15V271.125" stroke="#3A3A3A"/>
<path d="M-145 42.2251H400" stroke="#3A3A3A"/>
<path d="M-145 99.45H400" stroke="#3A3A3A"/>
<path d="M-145 156.675H400" stroke="#3A3A3A"/>
<path d="M-145 213.9H400" stroke="#3A3A3A"/>
<path d="M-145 13.6125H400" stroke="#363636"/>
<path d="M154.75 -15V271.125" stroke="#363636"/>
<path d="M-145 185.288H400" stroke="#363636"/>
<path d="M172.119 140.046V135.699H180.814V113.963H176.467V109.615H189.508V135.699H198.203V140.046H172.119Z" fill="#FFFFF0"/>
<path d="M137.342 140.046V135.699H146.036V113.963H141.689V109.615H154.731V135.699H163.425V140.046H137.342Z" fill="#FFFFF0"/>
<path d="M102.564 140.046V135.699H98.217V118.31H106.911V135.699H119.953V118.31H128.647V140.046H102.564Z" fill="#FFFFF0"/>
<path d="M63.4395 140.046V118.31H89.5226V122.657H93.8698V140.046H85.1754V122.657H72.1339V140.046H63.4395Z" fill="#FFFFF0"/>
<path opacity="0.3" d="M50.9434 88.9436H205.169V166.056H50.9434V88.9436Z" stroke="white" stroke-width="2"/>
<path d="M54.7992 85.0879H47.0879V92.7992H54.7992V85.0879Z" fill="#FFFF00"/>
<path d="M209.025 85.0879H201.313V92.7992H209.025V85.0879Z" fill="#FFFF00"/>
<path d="M58.8407 158.159H43V174H58.8407V158.159Z" fill="#FFFF00"/>
<path d="M58.8407 81H43V96.8407H58.8407V81Z" fill="#FFFF00"/>
<path d="M212.648 81H196.808V96.8407H212.648V81Z" fill="#FFFF00"/>
<path d="M212.648 157.648H196.808V173.489H212.648V157.648Z" fill="#FFFF00"/>
<path d="M209.025 162.201H201.313V169.912H209.025V162.201Z" fill="#FFFF00"/>
</g>
<defs>
<clipPath id="clip0_509_2">
<rect width="256" height="256" fill="white"/>
</clipPath>
</defs>
</svg>
